<svg width="522" height="522" viewBox="0 0 522 522" fill="none" xmlns="http://www.w3.org/2000/svg">
<mask id="mask0" mask-type="alpha" maskUnits="userSpaceOnUse" x="0" y="0" width="522" height="523">
<rect width="522" height="522" transform="matrix(-1 -8.28216e-08 -9.22796e-08 1 522 0)" fill="#E0AFBC" fill-opacity="0.3"/>
</mask>
<g mask="url(#mask0)">
<path d="M261.667 63C156.348 63 69.9163 145.604 63.7026 249.484C63.2286 254.842 62.9945 260.259 63.0001 265.734C62.9646 295.204 69.9191 324.262 83.2917 350.517C83.8712 351.659 84.4676 352.8 85.0821 353.925V349.761H85.7842C85.521 349.182 85.2403 348.602 84.9596 348.022C74.5998 326.005 69.2405 301.964 69.2668 277.627C69.2668 186.274 143.517 111.944 234.793 111.944C326.069 111.944 400.337 186.274 400.337 277.627C400.369 303.524 394.295 329.063 382.608 352.168C382.31 352.765 382.012 353.345 381.695 353.943C379.028 359.081 376.087 364.072 372.883 368.893C372.515 369.473 372.129 370.052 371.725 370.615C341.92 414.446 291.665 443.293 234.793 443.293C176.534 443.293 125.209 413.023 95.7195 367.364C95.2983 366.732 94.877 366.082 94.4908 365.432C94.4711 365.654 94.4238 365.872 94.3502 366.082C94.2781 366.29 94.184 366.491 94.0695 366.679C94.0273 366.768 93.9742 366.85 93.9113 366.925C93.8939 366.96 93.8763 366.978 93.8587 367.013C93.8398 367.046 93.8161 367.075 93.7884 367.101C93.6227 367.32 93.4279 367.515 93.2094 367.681C93.5253 368.172 93.8587 368.664 94.1922 369.156C101.177 379.682 109.204 389.476 118.152 398.39C118.24 398.477 118.328 398.565 118.415 398.653C154.558 436.442 205.409 460 261.667 460C330.704 460 391.613 424.53 427.123 370.826C427.509 370.263 427.878 369.701 428.246 369.139C431.265 364.466 434.109 359.67 436.724 354.733C437.058 354.118 437.391 353.503 437.69 352.888C452.386 324.674 460.041 293.318 460 261.5C460 152.052 371.023 63 261.667 63ZM84.8717 351.431C84.3275 350.394 83.8009 349.357 83.2917 348.303C76.7226 335.105 71.7719 321.16 68.5472 306.773C71.8847 321.105 76.831 335.013 83.2917 348.233C83.8009 349.305 84.3275 350.376 84.8717 351.431ZM119.1 397.933C119.03 397.862 118.96 397.774 118.89 397.704C116.59 395.298 114.361 392.82 112.184 390.308C142.639 423.494 186.329 444.312 234.793 444.312C292.244 444.312 343.008 415.044 372.936 370.614C373.34 370.035 373.726 369.455 374.095 368.875C377.06 364.385 379.796 359.747 382.292 354.979C382.626 354.364 382.941 353.749 383.275 353.117C395.181 329.739 401.371 303.867 401.337 277.627C401.337 185.712 326.631 110.943 234.793 110.943C142.972 110.943 68.2489 185.712 68.2489 277.627C68.2273 296.315 71.3668 314.871 77.5342 332.51C68.7805 309.862 64.3048 285.784 64.3347 261.5C64.3347 257.284 64.4748 253.085 64.7554 248.939C73.2514 154.02 153.153 79.4085 250.152 79.4085C352.803 79.4085 436.321 162.979 436.321 265.734C436.321 368.471 352.803 452.042 250.152 452.042C199.09 452.042 152.767 431.365 119.1 397.933L119.1 397.933ZM437.023 351.992C436.742 352.59 436.426 353.169 436.11 353.749C433.336 359.002 430.329 364.114 427.088 369.086C426.737 369.631 426.386 370.158 426.017 370.703C390.63 423.898 330.177 459.016 261.667 459.016C218.901 459.064 177.29 445.129 143.166 419.33C174.515 441.312 211.875 453.084 250.152 453.043C353.347 453.043 437.304 369.016 437.304 265.734C437.304 162.452 353.347 78.4246 250.152 78.4246C163.422 78.4246 90.2777 137.787 69.1439 218.055C88.9789 129.987 167.758 64.0015 261.667 64.0015C370.479 64.0015 458.999 152.596 458.999 261.5C459.04 292.993 451.502 324.032 437.023 351.992Z" fill="#BDBDBD"/>
</g>
</svg>
