<svg width="647" height="647" viewBox="0 0 647 647" fill="none" xmlns="http://www.w3.org/2000/svg">
<path d="M323.772 0C152.132 0 11.2717 134.622 1.14497 303.917C0.372612 312.649 -0.00896905 321.477 0.000221339 330.4C-0.0577591 378.428 11.2761 425.784 33.0699 468.573C34.0143 470.434 34.9862 472.294 35.9876 474.127V467.341H37.132C36.7029 466.397 36.2455 465.452 35.7881 464.507C18.9044 428.624 10.1703 389.445 10.2132 349.783C10.2132 200.902 131.22 79.7658 279.975 79.7658C428.73 79.7658 549.766 200.902 549.766 349.783C549.818 391.988 539.919 433.609 520.872 471.264C520.386 472.237 519.9 473.182 519.385 474.156C515.039 482.53 510.245 490.663 505.024 498.521C504.423 499.466 503.794 500.41 503.136 501.326C454.562 572.76 372.66 619.773 279.975 619.773C185.029 619.773 101.383 570.441 53.3238 496.03C52.6372 494.999 51.9507 493.939 51.3212 492.881C51.2891 493.242 51.2122 493.597 51.0921 493.939C50.9747 494.279 50.8213 494.606 50.6347 494.913C50.5659 495.057 50.4793 495.192 50.3769 495.314C50.3485 495.371 50.3198 495.4 50.2911 495.457C50.2603 495.51 50.2217 495.559 50.1765 495.6C49.9064 495.957 49.589 496.275 49.2329 496.545C49.7478 497.346 50.2911 498.148 50.8347 498.95C62.2181 516.104 75.3004 532.065 89.8832 546.592C90.0265 546.735 90.1694 546.878 90.3119 547.021C149.214 608.606 232.087 647 323.772 647C436.283 647 535.548 589.194 593.419 501.67C594.049 500.754 594.649 499.838 595.25 498.921C600.17 491.306 604.805 483.49 609.067 475.444C609.611 474.442 610.154 473.44 610.641 472.438C634.591 426.456 647.066 375.355 647 323.5C647 145.13 501.991 0 323.772 0ZM35.6448 470.062C34.7579 468.372 33.8997 466.683 33.0699 464.965C22.364 443.456 14.2957 420.73 9.04046 397.282C14.4796 420.639 22.5406 443.306 33.0699 464.851C33.8997 466.598 34.7579 468.344 35.6448 470.062ZM91.4279 545.848C91.3137 545.733 91.1988 545.59 91.0846 545.475C87.3367 541.553 83.7044 537.516 80.1564 533.421C129.789 587.506 200.992 621.433 279.975 621.433C373.605 621.433 456.336 573.734 505.11 501.326C505.768 500.381 506.398 499.437 506.998 498.492C511.831 491.174 516.289 483.615 520.358 475.845C520.901 474.843 521.416 473.841 521.96 472.81C541.363 434.711 551.452 392.546 551.396 349.783C551.396 199.987 429.646 78.1336 279.975 78.1336C130.333 78.1336 8.5543 199.987 8.5543 349.783C8.51907 380.238 13.6355 410.48 23.6868 439.226C9.42058 402.316 2.1264 363.076 2.17514 323.5C2.17514 316.629 2.40346 309.786 2.86089 303.029C16.7069 148.337 146.925 26.7414 305.006 26.7414C472.298 26.7414 608.409 162.939 608.409 330.4C608.409 497.834 472.298 634.031 305.006 634.031C221.789 634.031 146.296 600.332 91.4278 545.848H91.4279ZM609.553 470.978C609.096 471.951 608.581 472.895 608.066 473.841C603.545 482.401 598.644 490.733 593.362 498.835C592.79 499.723 592.218 500.582 591.617 501.47C533.946 588.164 435.425 645.396 323.772 645.396C254.076 645.475 186.261 622.765 130.648 580.72C181.739 616.544 242.624 635.729 305.006 635.662C473.185 635.662 610.012 498.721 610.012 330.4C610.012 162.079 473.185 25.1379 305.006 25.1379C163.66 25.1379 44.4552 121.882 10.0128 252.696C42.3385 109.17 170.726 1.63212 323.772 1.63212C501.105 1.63212 645.369 146.017 645.369 323.5C645.435 374.824 633.151 425.41 609.553 470.978Z" fill="url(#paint0_linear)" fill-opacity="0.75"/>
<defs>
<linearGradient id="paint0_linear" x1="42.7683" y1="485.881" x2="603.877" y2="162.198" gradientUnits="userSpaceOnUse">
<stop stop-color="white" stop-opacity="0"/>
<stop offset="0.00133" stop-color="#FEFCFC" stop-opacity="0.04241"/>
<stop offset="0.01096" stop-color="#F5E5E9" stop-opacity="0.32969"/>
<stop offset="0.02014" stop-color="#EDD1D9" stop-opacity="0.56895"/>
<stop offset="0.02863" stop-color="#E8C3CC" stop-opacity="0.75551"/>
<stop offset="0.03628" stop-color="#E3B8C3" stop-opacity="0.88943"/>
<stop offset="0.04282" stop-color="#E1B1BE" stop-opacity="0.97093"/>
<stop offset="0.04749" stop-color="#E0AFBC"/>
<stop offset="1" stop-color="#E0AFBC" stop-opacity="0.99997"/>
</linearGradient>
</defs>
</svg>
