<svg width="30" height="30" viewBox="0 0 30 30" fill="none" xmlns="http://www.w3.org/2000/svg">
<path d="M17.4883 15C17.4883 16.3743 16.3743 17.4883 15 17.4883C13.6257 17.4883 12.5117 16.3743 12.5117 15C12.5117 13.6257 13.6257 12.5117 15 12.5117C16.3743 12.5117 17.4883 13.6257 17.4883 15Z" fill="#E0AFBC"/>
<path d="M20.8193 10.5975C20.6997 10.2734 20.5088 9.98001 20.2609 9.7392C20.0201 9.49124 19.7269 9.30042 19.4026 9.1808C19.1395 9.07864 18.7444 8.95705 18.0166 8.92392C17.2293 8.88802 16.9932 8.88028 15.0001 8.88028C13.0067 8.88028 12.7706 8.88782 11.9835 8.92372C11.2557 8.95705 10.8604 9.07864 10.5976 9.1808C10.2732 9.30042 9.97986 9.49124 9.73924 9.7392C9.49129 9.98001 9.30046 10.2732 9.18065 10.5975C9.07849 10.8605 8.95689 11.2559 8.92377 11.9837C8.88786 12.7708 8.88013 13.0069 8.88013 15.0002C8.88013 16.9934 8.88786 17.2294 8.92377 18.0167C8.95689 18.7445 9.07849 19.1397 9.18065 19.4027C9.30046 19.727 9.49109 20.0202 9.73904 20.261C9.97986 20.509 10.273 20.6998 10.5974 20.8194C10.8604 20.9218 11.2557 21.0434 11.9835 21.0765C12.7706 21.1124 13.0065 21.1199 14.9999 21.1199C16.9934 21.1199 17.2295 21.1124 18.0164 21.0765C18.7442 21.0434 19.1395 20.9218 19.4026 20.8194C20.0536 20.5683 20.5681 20.0537 20.8193 19.4027C20.9214 19.1397 21.043 18.7445 21.0764 18.0167C21.1123 17.2294 21.1198 16.9934 21.1198 15.0002C21.1198 13.0069 21.1123 12.7708 21.0764 11.9837C21.0432 11.2559 20.9216 10.8605 20.8193 10.5975ZM15.0001 18.8332C12.8829 18.8332 11.1667 17.1172 11.1667 15C11.1667 12.8829 12.8829 11.1668 15.0001 11.1668C17.117 11.1668 18.8333 12.8829 18.8333 15C18.8333 17.1172 17.117 18.8332 15.0001 18.8332ZM18.9848 11.9111C18.4901 11.9111 18.089 11.51 18.089 11.0153C18.089 10.5206 18.4901 10.1195 18.9848 10.1195C19.4795 10.1195 19.8806 10.5206 19.8806 11.0153C19.8804 11.51 19.4795 11.9111 18.9848 11.9111Z" fill="#E0AFBC"/>
<path d="M15 2C7.8214 2 2 7.8214 2 15C2 22.1786 7.8214 28 15 28C22.1786 28 28 22.1786 28 15C28 7.8214 22.1786 2 15 2ZM22.4198 18.0776C22.3837 18.8723 22.2574 19.4148 22.0729 19.8897C21.6851 20.8924 20.8924 21.6851 19.8897 22.0729C19.415 22.2574 18.8723 22.3835 18.0778 22.4198C17.2818 22.4561 17.0275 22.4648 15.0002 22.4648C12.9727 22.4648 12.7186 22.4561 11.9224 22.4198C11.1279 22.3835 10.5852 22.2574 10.1105 22.0729C9.61223 21.8854 9.16115 21.5916 8.78822 21.2118C8.40855 20.8391 8.11478 20.3878 7.92732 19.8897C7.74284 19.415 7.61649 18.8723 7.58038 18.0778C7.54369 17.2816 7.53516 17.0273 7.53516 15C7.53516 12.9727 7.54369 12.7184 7.58018 11.9224C7.61629 11.1277 7.74245 10.5852 7.92693 10.1103C8.11438 9.61223 8.40836 9.16095 8.78822 8.78822C9.16095 8.40836 9.61223 8.11458 10.1103 7.92712C10.5852 7.74265 11.1277 7.61649 11.9224 7.58018C12.7184 7.54388 12.9727 7.53516 15 7.53516C17.0273 7.53516 17.2816 7.54388 18.0776 7.58038C18.8723 7.61649 19.4148 7.74265 19.8897 7.92693C20.3878 8.11438 20.8391 8.40836 21.212 8.78822C21.5916 9.16115 21.8856 9.61223 22.0729 10.1103C22.2576 10.5852 22.3837 11.1277 22.42 11.9224C22.4563 12.7184 22.4648 12.9727 22.4648 15C22.4648 17.0273 22.4563 17.2816 22.4198 18.0776Z" fill="#E0AFBC"/>
</svg>
