<svg width="264" height="264" viewBox="0 0 264 264" fill="none" xmlns="http://www.w3.org/2000/svg">
<path d="M132.111 0C62.0754 0 4.59928 54.9309 0.467188 124.009C0.15204 127.573 -0.0036597 131.175 9.03145e-05 134.816C-0.0235678 154.413 4.60109 173.736 13.4937 191.195C13.8791 191.954 14.2757 192.714 14.6843 193.461V190.693H15.1512C14.9762 190.307 14.7895 189.922 14.6029 189.536C7.7137 174.895 4.14987 158.908 4.16735 142.724C4.16735 81.9756 53.5426 32.5474 114.24 32.5474C174.938 32.5474 224.325 81.9756 224.325 142.724C224.346 159.946 220.307 176.929 212.535 192.293C212.337 192.69 212.139 193.076 211.928 193.473C210.155 196.89 208.199 200.209 206.069 203.415C205.823 203.801 205.567 204.186 205.298 204.56C185.478 233.707 152.059 252.89 114.24 252.89C75.4988 252.89 41.3682 232.761 21.7581 202.398C21.4779 201.978 21.1978 201.546 20.941 201.114C20.9279 201.261 20.8965 201.406 20.8475 201.546C20.7996 201.684 20.737 201.818 20.6608 201.943C20.6328 202.002 20.5974 202.057 20.5556 202.106C20.5441 202.13 20.5323 202.141 20.5206 202.165C20.5081 202.187 20.4923 202.206 20.4739 202.223C20.3637 202.369 20.2341 202.499 20.0889 202.609C20.299 202.936 20.5206 203.263 20.7424 203.59C25.3873 210.589 30.7254 217.102 36.6757 223.03C36.7341 223.088 36.7924 223.146 36.8506 223.205C60.8846 248.334 94.7003 264 132.111 264C178.02 264 218.523 240.413 242.137 204.7C242.394 204.326 242.639 203.952 242.884 203.578C244.892 200.471 246.783 197.282 248.522 193.999C248.744 193.59 248.966 193.181 249.164 192.772C258.937 174.01 264.027 153.159 264 132C264 59.2183 204.831 0 132.111 0ZM14.5444 191.803C14.1825 191.113 13.8323 190.424 13.4937 189.723C9.12536 180.946 5.83317 171.673 3.68884 162.106C5.90821 171.636 9.19741 180.885 13.4937 189.676C13.8323 190.389 14.1825 191.102 14.5444 191.803ZM37.306 222.726C37.2594 222.679 37.2125 222.621 37.1659 222.574C35.6366 220.974 34.1545 219.326 32.7068 217.656C52.9589 239.724 82.0122 253.568 114.24 253.568C152.445 253.568 186.202 234.105 206.104 204.56C206.372 204.174 206.629 203.789 206.874 203.403C208.846 200.417 210.665 197.333 212.325 194.162C212.547 193.753 212.757 193.345 212.979 192.924C220.896 177.378 225.013 160.173 224.99 142.724C224.99 81.602 175.311 31.8814 114.24 31.8814C53.1806 31.8814 3.49047 81.602 3.49047 142.724C3.4761 155.151 5.56379 167.491 9.66508 179.221C3.84395 164.16 0.867651 148.148 0.887539 132C0.887539 129.196 0.980702 126.404 1.16735 123.647C6.81703 60.5269 59.9508 10.9115 124.454 10.9115C192.715 10.9115 248.254 66.485 248.254 134.816C248.254 203.135 192.715 258.708 124.454 258.708C90.498 258.708 59.6941 244.958 37.306 222.726ZM248.72 192.176C248.534 192.574 248.324 192.959 248.113 193.345C246.269 196.838 244.269 200.237 242.114 203.543C241.88 203.906 241.647 204.256 241.402 204.618C217.87 239.993 177.669 263.346 132.111 263.346C103.672 263.378 76.0015 254.111 53.3092 236.955C74.1563 251.573 98.9997 259.401 124.454 259.374C193.077 259.374 248.907 203.497 248.907 134.816C248.907 66.1344 193.077 10.2572 124.454 10.2572C66.7794 10.2572 18.1394 49.7323 4.0856 103.109C17.2757 44.5453 69.6625 0.665964 132.111 0.665964C204.47 0.665964 263.335 59.5805 263.335 132C263.362 152.942 258.349 173.583 248.72 192.176Z" fill="#E0AFBC" fill-opacity="0.4"/>
</svg>
