<svg width="86" height="80" viewBox="0 0 86 80" fill="none" xmlns="http://www.w3.org/2000/svg">
<path d="M43.0341 0.44043C22.0467 0.44043 4.82307 16.8875 3.58482 37.5706C3.49038 38.6375 3.44373 39.716 3.44485 40.8062C3.43776 46.6739 4.82362 52.4594 7.48845 57.687C7.60392 57.9144 7.72277 58.1417 7.84522 58.3656V57.5366H7.98515C7.93268 57.4212 7.87675 57.3057 7.82081 57.1903C5.75636 52.8064 4.6884 48.0198 4.69364 43.1742C4.69364 24.9851 19.4898 10.1856 37.6788 10.1856C55.8679 10.1856 70.6675 24.9851 70.6675 43.1742C70.6739 48.3305 69.4634 53.4155 67.1346 58.0158C67.0752 58.1347 67.0157 58.2501 66.9527 58.3691C66.4212 59.3922 65.8351 60.3858 65.1967 61.3458C65.1233 61.4613 65.0464 61.5767 64.9659 61.6886C59.0265 70.4158 49.0119 76.1595 37.6788 76.1595C26.0693 76.1595 15.8415 70.1325 9.96499 61.0415C9.88105 60.9156 9.7971 60.7861 9.72014 60.6567C9.71621 60.7009 9.7068 60.7443 9.69212 60.7861C9.67776 60.8276 9.65901 60.8675 9.63619 60.9051C9.62778 60.9226 9.61719 60.9391 9.60467 60.954C9.6012 60.961 9.59769 60.9645 9.59417 60.9715C9.59041 60.978 9.58569 60.9839 9.58016 60.989C9.54714 61.0326 9.50832 61.0714 9.46479 61.1045C9.52775 61.2024 9.59417 61.3003 9.66065 61.3983C11.0525 63.494 12.6522 65.444 14.4353 67.2188C14.4528 67.2362 14.4703 67.2537 14.4877 67.2712C21.6899 74.7952 31.8234 79.4859 43.0341 79.4859C56.7914 79.4859 68.929 72.4236 76.0053 61.7306C76.0822 61.6187 76.1557 61.5067 76.2291 61.3948C76.8307 60.4643 77.3974 59.5094 77.9186 58.5265C77.985 58.404 78.0515 58.2816 78.111 58.1592C81.0396 52.5415 82.5649 46.2984 82.5568 39.9631C82.5568 18.1712 64.8259 0.44043 43.0341 0.44043ZM7.80329 57.8689C7.69485 57.6625 7.58991 57.4561 7.48845 57.2463C6.17939 54.6184 5.19283 51.8419 4.55025 48.9772C5.21532 51.8309 6.20098 54.6002 7.48845 57.2323C7.58991 57.4457 7.69485 57.659 7.80329 57.8689ZM14.6242 67.1278C14.6102 67.1138 14.5962 67.0963 14.5822 67.0823C14.1239 66.6032 13.6798 66.1099 13.246 65.6097C16.3487 69.0003 20.1236 71.7075 24.3302 73.5587C28.5368 75.41 33.0829 76.3648 37.6788 76.3623C49.1274 76.3623 59.2433 70.5348 65.2072 61.6886C65.2877 61.5732 65.3647 61.4577 65.4381 61.3423C66.029 60.4482 66.5742 59.5248 67.0716 58.5755C67.1381 58.4531 67.201 58.3306 67.2675 58.2047C69.6401 53.5501 70.8736 48.3986 70.8668 43.1742C70.8668 24.8733 55.9798 9.98618 37.6788 9.98618C19.3813 9.98618 4.4908 24.8733 4.4908 43.1742C4.48649 46.895 5.1121 50.5897 6.34112 54.1017C4.59672 49.5923 3.70482 44.7982 3.71078 39.9631C3.71078 39.1237 3.7387 38.2877 3.79464 37.4622C5.48766 18.5631 21.4101 3.70748 40.7395 3.70748C61.1952 3.70748 77.8382 20.347 77.8382 40.8062C77.8382 61.2619 61.1951 77.9014 40.7395 77.9014C30.9516 77.908 21.5604 74.0338 14.6242 67.1278ZM77.9781 57.9808C77.9221 58.0998 77.8592 58.2151 77.7962 58.3306C77.2434 59.3765 76.6441 60.3943 75.9983 61.3843C75.9283 61.4927 75.8583 61.5977 75.7849 61.7061C68.7331 72.2978 56.6864 79.29 43.0341 79.29C34.512 79.2996 26.2199 76.525 19.4198 71.3883C25.667 75.7649 33.1117 78.1089 40.7395 78.1007C61.3036 78.1007 78.0341 61.3702 78.0341 40.8062C78.0341 20.242 61.3036 3.51158 40.7395 3.51158C23.4564 3.51158 8.88058 15.331 4.66914 31.3129C8.62177 13.7779 24.3204 0.639825 43.0341 0.639825C64.7176 0.639825 82.3574 18.2797 82.3574 39.9631C82.3655 46.2336 80.8634 52.4137 77.9781 57.9808V57.9808Z" fill="url(#paint0_linear)"/>
<path d="M9.92655 59.8874C9.80725 59.7154 9.6459 59.5769 9.45789 59.4851C9.3922 59.4491 9.32305 59.4198 9.25148 59.3976C9.3105 59.3719 9.36675 59.3403 9.41937 59.3032C9.56785 59.1995 9.68615 59.0583 9.76216 58.8939C9.84093 58.7205 9.88035 58.5317 9.87762 58.3413C9.87762 57.939 9.75516 57.6417 9.51382 57.4598C9.27249 57.2814 8.9332 57.1904 8.49947 57.1904H7.69143C7.74386 57.3059 7.80339 57.4213 7.86282 57.5367H8.50988C8.76981 57.5226 9.02738 57.5925 9.24447 57.7361C9.42287 57.8691 9.51382 58.0929 9.51382 58.4008C9.51972 58.6254 9.44807 58.8453 9.31091 59.0233C9.2014 59.1489 9.04951 59.2299 8.88418 59.2507C8.85184 59.2574 8.81913 59.262 8.78623 59.2647C8.7478 59.2682 8.70578 59.2717 8.66385 59.2717H8.5729C8.63934 59.3906 8.70578 59.5061 8.77922 59.6214C8.8098 59.6244 8.84019 59.6291 8.87026 59.6355C8.91776 59.6397 8.96466 59.6491 9.01014 59.6635C9.05409 59.6719 9.09734 59.6836 9.13952 59.6985C9.14652 59.7019 9.15352 59.7019 9.16053 59.7055C9.32061 59.7622 9.46378 59.8584 9.57676 59.9852C9.69026 60.1292 9.74749 60.3095 9.73773 60.4925C9.73917 60.5478 9.73329 60.6031 9.72023 60.6569C9.7163 60.701 9.70689 60.7445 9.69221 60.7863C9.76216 60.9052 9.8356 61.0242 9.90904 61.1396C9.93106 61.1089 9.94983 61.0761 9.96506 61.0416C9.97217 61.0331 9.97806 61.0237 9.98257 61.0136C10.0656 60.849 10.1064 60.6663 10.1014 60.482C10.1058 60.2705 10.0447 60.0628 9.92655 59.8874ZM9.92655 59.8874C9.80725 59.7154 9.6459 59.5769 9.45789 59.4851C9.3922 59.4491 9.32305 59.4198 9.25148 59.3976C9.3105 59.3719 9.36675 59.3403 9.41937 59.3032C9.56785 59.1995 9.68615 59.0583 9.76216 58.8939C9.84093 58.7205 9.88035 58.5317 9.87762 58.3413C9.87762 57.939 9.75516 57.6417 9.51382 57.4598C9.27249 57.2814 8.9332 57.1904 8.49947 57.1904H7.48853V61.6888H8.67436C8.8539 61.689 9.03268 61.6655 9.20605 61.6188C9.36851 61.5704 9.52205 61.4959 9.66071 61.3984C9.6607 61.3979 9.66078 61.3975 9.66096 61.397C9.66113 61.3966 9.66138 61.3962 9.66171 61.3959C9.66204 61.3956 9.66243 61.3953 9.66286 61.3951C9.66329 61.395 9.66375 61.3949 9.66421 61.3949C9.70272 61.3634 9.74115 61.332 9.77617 61.2969C9.78753 61.2861 9.79806 61.2744 9.80768 61.262C9.82109 61.2509 9.83285 61.2379 9.84261 61.2235C9.86712 61.1955 9.88813 61.1676 9.90904 61.1396C9.93106 61.1089 9.94983 61.0761 9.96507 61.0416C9.97217 61.0331 9.97806 61.0237 9.98257 61.0136C10.0656 60.849 10.1064 60.6663 10.1014 60.482C10.1058 60.2705 10.0447 60.0628 9.92655 59.8874ZM7.84532 57.5367H8.50988C8.7698 57.5226 9.02738 57.5925 9.24447 57.7361C9.42286 57.8691 9.51382 58.0929 9.51382 58.4008C9.51972 58.6254 9.44806 58.8453 9.31091 59.0233C9.2014 59.1489 9.04951 59.2299 8.88418 59.2507C8.85184 59.2574 8.81913 59.262 8.78623 59.2647C8.7478 59.2682 8.70578 59.2717 8.66385 59.2717H7.84531L7.84532 57.5367ZM9.69222 60.7863C9.67784 60.8278 9.65909 60.8677 9.63628 60.9052C9.62786 60.9228 9.61727 60.9392 9.60477 60.9542C9.60127 60.9612 9.59777 60.9647 9.59427 60.9717C9.59049 60.9782 9.58577 60.9841 9.58026 60.9892C9.54722 61.0327 9.5084 61.0716 9.46489 61.1046C9.38754 61.1723 9.29869 61.2256 9.20255 61.262C9.02935 61.3276 8.84556 61.3608 8.66035 61.36H7.84532V59.6144H8.64285C8.68031 59.6132 8.7178 59.6155 8.75481 59.6214C8.76286 59.6197 8.77118 59.6197 8.77923 59.6214C8.80981 59.6244 8.8402 59.6291 8.87026 59.6355C8.91776 59.6397 8.96466 59.6491 9.01015 59.6635C9.05409 59.6719 9.09734 59.6836 9.13953 59.6985C9.14653 59.7019 9.15353 59.7019 9.16053 59.7055C9.32062 59.7622 9.46379 59.8584 9.57676 59.9852C9.69027 60.1292 9.74749 60.3095 9.73774 60.4925C9.73918 60.5478 9.73329 60.6031 9.72023 60.6569C9.71631 60.701 9.7069 60.7445 9.69222 60.7863Z" fill="white"/>
<path d="M13.4243 59.5959H15.6179V59.2511H13.4243V57.5343H15.8621V57.1895H13.0669V61.6894H15.95V61.3446H13.4243V59.5959Z" fill="white"/>
<path d="M20.518 57.0116L20.511 56.9941H20.4516L18.5662 61.6533L18.5522 61.6883H18.9125L19.5037 60.2157H21.431L22.0046 61.6743L22.0116 61.6883H22.4104L20.518 57.0116ZM19.6365 59.8799L20.4761 57.7846L21.298 59.8799H19.6365Z" fill="white"/>
<path d="M27.9337 60.1617C27.9394 60.3907 27.8855 60.6172 27.7772 60.8191C27.677 60.9987 27.5284 61.1466 27.3482 61.2459C27.1561 61.3478 26.9413 61.3995 26.7238 61.3961C26.5095 61.3993 26.2979 61.3476 26.1092 61.2459C25.9302 61.1461 25.7826 60.9984 25.6829 60.8193C25.5746 60.6174 25.5207 60.3908 25.5264 60.1617V57.1904H25.169V60.1805C25.1614 60.4735 25.232 60.7632 25.3734 61.0199C25.504 61.2487 25.698 61.4348 25.932 61.5556C26.178 61.6777 26.449 61.7412 26.7237 61.7412C26.9983 61.7412 27.2693 61.6777 27.5153 61.5556C27.7497 61.4341 27.9445 61.2484 28.0771 61.0202C28.2205 60.764 28.2921 60.4739 28.2846 60.1805V57.1904H27.9337V60.1617Z" fill="white"/>
<path d="M31.1482 57.5343H32.4454V61.6894H32.8028V57.5343H34.1126V57.1895H31.1482V57.5343Z" fill="white"/>
<path d="M38.3981 59.6814L36.9731 57.202L36.9658 57.1895H36.5322L38.2114 60.0862V61.6894H38.5688V60.0862L40.2484 57.1895H39.8198L38.3981 59.6814Z" fill="white"/>
<path d="M48.9836 59.5579L48.9833 59.5576C48.8615 59.4591 48.7281 59.376 48.5859 59.3102C48.446 59.2449 48.2987 59.1834 48.149 59.1281C47.9664 59.0576 47.7919 58.983 47.6308 58.9057C47.4846 58.8404 47.3529 58.7465 47.2434 58.6297C47.1458 58.5202 47.0943 58.3771 47.0997 58.2304C47.0984 58.1281 47.1206 58.0268 47.1646 57.9345C47.2086 57.8421 47.2733 57.7611 47.3537 57.6977C47.5498 57.5474 47.793 57.4717 48.0399 57.4841C48.2283 57.4847 48.4157 57.5118 48.5965 57.5646C48.7587 57.6095 48.9168 57.6677 49.0693 57.7388L49.0916 57.7497L49.2326 57.4669L49.2108 57.4555C49.031 57.364 48.841 57.2941 48.6447 57.2472C48.4346 57.1935 48.2186 57.1658 48.0018 57.165C47.7783 57.1648 47.5576 57.2136 47.355 57.3079C47.1735 57.3928 47.0177 57.5243 46.9035 57.689C46.7907 57.8581 46.7324 58.0577 46.7363 58.2609C46.7317 58.4181 46.7684 58.5737 46.8428 58.7122C46.914 58.8375 47.0115 58.946 47.1286 59.0301C47.2507 59.1193 47.3827 59.194 47.5222 59.2525C47.6621 59.3127 47.8058 59.3712 47.95 59.4264C48.127 59.49 48.2997 59.5647 48.4672 59.6502C48.6194 59.7264 48.7534 59.8344 48.86 59.967C48.9665 60.1115 49.0199 60.2883 49.0113 60.4676C49.0189 60.6583 48.9623 60.8461 48.8505 61.0008C48.7435 61.1397 48.6023 61.2484 48.4405 61.316C48.1312 61.4408 47.7881 61.4539 47.4702 61.353C47.1996 61.2724 46.9439 61.1486 46.7129 60.9864L46.6903 60.9701L46.5208 61.2662L46.5412 61.279C46.619 61.328 46.7279 61.3901 46.8651 61.4638C47.0185 61.5444 47.1798 61.609 47.3463 61.6568C47.5452 61.7144 47.7514 61.7426 47.9585 61.7407C48.2134 61.7454 48.466 61.6907 48.6961 61.5809C48.9018 61.4807 49.0748 61.3242 49.1951 61.1296C49.3166 60.9283 49.3789 60.6969 49.3747 60.4619C49.3803 60.2769 49.3442 60.0929 49.2691 59.9237C49.2012 59.7828 49.1038 59.658 48.9836 59.5579Z" fill="white"/>
<path d="M51.9314 57.5343H53.2286V61.6894H53.586V57.5343H54.8956V57.1895H51.9314V57.5343Z" fill="white"/>
<path d="M60.5243 60.1617C60.53 60.3908 60.476 60.6174 60.3677 60.8193C60.2676 60.9988 60.119 61.1466 59.939 61.2459C59.7469 61.3478 59.5321 61.3995 59.3146 61.3961C59.1003 61.3993 58.8887 61.3476 58.7 61.2459C58.521 61.1461 58.3734 60.9984 58.2737 60.8193C58.1655 60.6174 58.1115 60.3908 58.1172 60.1617V57.1904H57.7598V60.1805C57.7522 60.4735 57.8228 60.7632 57.9643 61.0199C58.0947 61.2488 58.2887 61.4348 58.5228 61.5556C58.7688 61.6777 59.0398 61.7412 59.3145 61.7412C59.5892 61.7412 59.8601 61.6777 60.1062 61.5556C60.3405 61.4341 60.5354 61.2484 60.668 61.0202C60.8111 60.764 60.8827 60.4739 60.8751 60.1805V57.1904H60.5243V60.1617Z" fill="white"/>
<path d="M67.4916 58.6734C67.4364 58.5086 67.3612 58.3512 67.2678 58.2047C67.2287 58.1382 67.1843 58.075 67.1349 58.0158C67.117 57.9887 67.0971 57.963 67.0754 57.9389C66.8711 57.7043 66.6164 57.519 66.3303 57.3967C65.9779 57.2514 65.5991 57.1811 65.218 57.1903H64.0952V61.6886H65.4314C65.7151 61.6913 65.9966 61.639 66.2604 61.5347C66.5219 61.4332 66.7608 61.281 66.9635 61.087C67.1711 60.8897 67.3355 60.6515 67.4462 60.3874C67.5686 60.0951 67.6293 59.7807 67.6245 59.4639C67.6222 59.195 67.5774 58.9282 67.4916 58.6734ZM67.1138 60.2404C67.0199 60.4646 66.8807 60.667 66.7049 60.8349C66.5292 61.0028 66.3207 61.1327 66.0925 61.2164C65.8825 61.2927 65.6617 61.3352 65.4383 61.3423C65.4093 61.3452 65.3801 61.3464 65.3509 61.3458H64.4555V57.54H65.2635C65.5599 57.5346 65.8545 57.5869 66.131 57.694C66.3647 57.7906 66.5765 57.9333 66.7536 58.1138C66.829 58.1915 66.8958 58.2771 66.953 58.3691C66.998 58.4346 67.0378 58.5037 67.0719 58.5755C67.0965 58.6241 67.1175 58.6743 67.1349 58.7259C67.2196 58.9566 67.2623 59.2006 67.2608 59.4464C67.2657 59.7183 67.2157 59.9883 67.1138 60.2404Z" fill="white"/>
<path d="M70.947 57.1904H70.5898V61.6903H70.947V57.1904Z" fill="white"/>
<path d="M78.3313 58.5544C78.2725 58.415 78.1986 58.2824 78.111 58.1591C78.0706 58.0968 78.0262 58.0372 77.978 57.9807C77.9326 57.9247 77.8836 57.8722 77.8346 57.8198C77.623 57.6088 77.3739 57.4392 77.1001 57.3196C76.817 57.1991 76.5123 57.1372 76.2047 57.1377C75.8991 57.1365 75.5966 57.1984 75.3162 57.3196C74.7631 57.5577 74.3233 58 74.0884 58.5544C73.9687 58.8364 73.908 59.1399 73.91 59.4463C73.9069 59.7595 73.9676 60.0702 74.0884 60.3593C74.2021 60.6326 74.3698 60.8801 74.5816 61.0868C74.7933 61.2933 75.0427 61.4571 75.3162 61.5695C75.4679 61.6292 75.6248 61.6749 75.7848 61.706C75.8583 61.7165 75.9317 61.7269 76.0052 61.7305C76.0715 61.7374 76.138 61.7409 76.2047 61.7409C76.5121 61.7426 76.8167 61.6819 77.1 61.5625C77.3738 61.4459 77.6231 61.2786 77.8346 61.0693C78.0445 60.8576 78.213 60.6084 78.3313 60.3348C78.4525 60.0543 78.5145 59.7518 78.5132 59.4463C78.5141 59.1397 78.4522 58.8361 78.3313 58.5544ZM77.9955 60.2054C77.8971 60.4372 77.7559 60.6484 77.5793 60.828C77.4004 61.0038 77.1905 61.1449 76.9602 61.2442C76.7289 61.3426 76.4804 61.3937 76.2291 61.3946H76.1976C76.131 61.3946 76.0645 61.3911 75.9982 61.3841C75.8103 61.3657 75.6262 61.3185 75.4526 61.2442C75.2238 61.144 75.0152 61.003 74.8369 60.828C74.661 60.6486 74.5209 60.4373 74.4242 60.2054C74.3241 59.9673 74.2729 59.7115 74.2738 59.4533C74.2734 58.9381 74.4727 58.4429 74.8299 58.0716C75.0057 57.8901 75.2147 57.744 75.4455 57.6414C75.6843 57.535 75.9432 57.4813 76.2046 57.484C76.4643 57.4833 76.7214 57.5357 76.9602 57.6379C77.1914 57.7401 77.4015 57.8848 77.5793 58.0646C77.6601 58.146 77.7327 58.235 77.7961 58.3305C77.8402 58.3937 77.8811 58.4591 77.9186 58.5264C77.9466 58.5788 77.971 58.6313 77.9955 58.6873C78.0966 58.9274 78.1478 59.1857 78.1459 59.4463C78.1492 59.707 78.098 59.9656 77.9955 60.2054Z" fill="white"/>
<path d="M53.9661 36.1488C53.5908 36.1488 53.315 36.0371 53.1468 35.8165C52.9762 35.5961 52.8857 35.3242 52.89 35.0455C52.89 34.7554 53.17 34.276 53.723 33.6195C54.2732 32.9643 54.7166 32.6319 55.0408 32.6319C55.1834 32.6253 55.3257 32.6492 55.4583 32.702C55.5909 32.7549 55.7107 32.8355 55.8096 32.9384C55.9962 33.1441 56.0909 33.4397 56.0909 33.8142C56.0909 34.1915 55.8287 34.6791 55.3118 35.2648C54.7935 35.8519 54.3413 36.1488 53.9661 36.1488Z" fill="white"/>
<path d="M31.9389 42.4302C32.1031 42.2102 32.2413 41.972 32.3507 41.7203C32.4139 41.553 32.4759 41.3852 32.5368 41.2168C30.3759 43.0928 27.9224 44.6022 25.2735 45.6849C20.7716 47.5312 16.5422 48.4188 12.7038 48.3226L12.0215 48.3055C8.51908 48.1755 5.98154 47.0684 4.48005 45.017C3.62181 43.855 3.20702 42.4854 3.24554 40.9476C3.28366 39.4269 3.61908 37.7622 4.24278 36.0015C5.75649 31.5807 8.37283 27.3282 12.0178 23.3608C15.6612 19.3933 19.236 16.4208 22.6423 14.5284C26.0636 12.6269 28.8758 11.6898 30.9991 11.7429C33.5393 11.8066 34.7967 13.0645 34.7361 15.4814C34.7054 16.7054 34.3125 17.8922 33.5761 19.0002C32.0292 21.8059 29.7452 24.1358 26.9708 25.7383C24.1547 27.3877 20.9877 28.3459 17.7295 28.5343C16.8353 28.5869 16.3754 28.9238 16.3233 29.5693C16.3123 29.6263 16.3136 29.6849 16.3271 29.7413C16.3407 29.7977 16.3662 29.8505 16.4018 29.8962C16.5058 30.0144 16.726 30.0809 17.0398 30.0887C17.1351 30.0912 17.2383 30.0875 17.3494 30.0793C19.4661 29.9293 22.0127 29.1776 24.9191 27.8444C27.8821 26.4723 30.5975 24.6194 32.9554 22.3607C35.3576 20.0744 36.6035 17.7982 36.6588 15.592C36.6971 14.4776 36.3224 13.3884 35.6067 12.5333C34.484 11.232 32.5284 10.5362 29.7945 10.4677C27.5634 10.4117 25.1826 10.8473 22.7194 11.7604C16.33 14.2156 10.7478 18.839 6.12905 25.5035C2.74373 30.3944 0.972327 35.0603 0.864303 39.3726C0.800662 41.9112 1.46132 44.0086 2.82644 45.6083C4.94303 48.0828 8.19413 49.3922 12.4892 49.4999C16.607 49.603 20.9535 48.6575 25.4076 46.6881C27.7291 45.6472 29.8986 44.296 31.8565 42.6714C31.8714 42.5872 31.8992 42.5059 31.9389 42.4302Z" fill="white"/>
<path d="M53.1952 45.2821C53.9561 44.7498 54.7517 44.1867 55.617 43.5745C55.2027 44.3562 54.9066 45.195 54.7384 46.0636C54.5806 46.5676 54.5863 47.1086 54.7547 47.6091C54.9462 48.1709 55.3408 48.6409 55.8609 48.9269C56.7882 49.415 57.6342 49.4638 58.3663 49.4638H58.6103C60.3185 49.3824 61.799 48.8944 63.4096 48.3086C64.9877 47.723 66.5169 47.056 67.9973 46.389C69.3314 45.8033 70.6979 45.2014 72.0645 44.6808C74.277 43.8348 76.8962 42.9726 79.5968 42.9726C80.0591 42.9673 80.5212 42.9944 80.9796 43.0539C82.7366 43.2491 84.0544 44.0951 84.51 45.3803C84.6955 45.9126 84.7513 46.4815 84.6726 47.0398C84.5262 48.0484 84.132 49.023 83.2328 49.9938C83.1246 50.097 83.0429 50.2247 82.9944 50.3661C82.9802 50.4182 82.9822 50.4734 83 50.5244C83.0179 50.5754 83.0508 50.6197 83.0944 50.6516C83.1668 50.704 83.2542 50.7316 83.3436 50.7301C83.3977 50.7294 83.4511 50.7177 83.5006 50.6958C83.55 50.6739 83.5945 50.6422 83.6314 50.6026C85.5361 48.378 85.2258 46.21 84.8841 45.3153C84.6076 44.5506 84.0707 43.7697 83.3711 43.2817C82.6065 42.7448 81.7117 42.517 81.0935 42.387C80.3728 42.2688 79.6438 42.2089 78.9136 42.2079C76.3919 42.2079 73.9516 42.8587 71.674 43.5745C70.0309 44.0951 68.3877 44.7296 66.8097 45.3316C65.492 45.8359 64.1904 46.3239 62.8727 46.7632C61.4573 47.2187 59.9769 47.6417 58.5453 47.6417C58.2237 47.6388 57.9028 47.6116 57.5854 47.5604C57.0486 47.3163 56.772 46.8933 56.772 46.2914C56.772 44.9899 57.7156 43.3467 59.5539 41.362C61.4086 39.4098 62.9541 38.3848 64.1904 38.3523C64.581 38.3523 64.7924 38.4825 64.7924 38.7427C64.7924 38.9868 64.4833 39.3772 63.8813 39.9141C63.5072 40.2882 63.4259 40.4835 63.4259 40.5811C63.4259 40.874 63.7024 41.0692 64.288 41.183C64.8086 41.183 65.3781 40.7763 66.0288 39.9628C66.6633 39.1494 66.9887 38.5801 66.9887 38.271C66.9961 38.1388 66.9753 38.0067 66.9276 37.8832C66.8799 37.7598 66.8065 37.6479 66.7121 37.5551C66.5169 37.3762 66.0451 37.2623 65.2805 37.1973C62.7263 37.1973 60.3023 38.2872 58.0897 40.4347C57.7156 40.8088 57.3739 41.1668 57.0648 41.5409C55.7322 42.5797 54.4334 43.5509 53.1379 44.4674" fill="white"/>
<path d="M53.1379 44.4679C52.4249 44.9724 51.7111 45.4611 50.9966 45.9339C49.4999 46.9263 48.6052 47.4143 48.2309 47.4143C47.8405 47.4143 47.6616 47.1541 47.6616 46.6498C47.6616 45.7712 48.475 44.3071 50.0693 42.2898C51.6637 40.2724 52.4771 39.0361 52.4771 38.5805C52.4771 38.1412 52.1842 37.9297 51.6148 37.9297C51.0942 37.9297 50.3784 38.5318 49.4511 39.7193L48.3286 40.6467C46.1161 42.4199 43.6921 44.2095 41.0891 45.9339C39.6086 46.9263 38.6976 47.4143 38.3234 47.4143C37.9492 47.4143 37.754 47.1052 37.754 46.5196C37.754 45.9502 38.4373 44.6649 39.8038 42.729C41.1542 40.8093 41.8374 39.6217 41.8374 39.1824C41.8374 38.7594 41.7398 38.4503 41.5283 38.2551C41.3338 38.0748 41.0777 37.9758 40.8125 37.9786C40.0805 37.9786 38.7464 38.727 36.8105 40.2074C34.8908 41.6879 33.3453 42.9893 32.239 44.0956C32.1639 44.1501 32.0706 44.1734 31.9787 44.1606C31.8811 44.1606 31.7834 44.1282 31.7834 43.9328C31.7999 43.7244 31.8794 43.5258 32.0112 43.3635C32.1739 43.1357 33.6055 41.0045 36.3062 36.9374C39.0067 32.9191 40.5359 30.5927 40.8776 30.0232C41.2029 29.4702 42.4556 27.6481 44.6194 24.6059C46.7831 21.5474 47.9707 19.8717 48.1496 19.5951C48.3228 19.376 48.4249 19.1092 48.4424 18.8304C48.4424 18.4237 48.1333 18.2285 47.4989 18.2285C46.8644 18.2285 46.3438 18.5213 45.9697 19.1071L27.6837 46.9913C27.2283 47.5771 27.0005 48.0651 27.0005 48.4393C27.0005 48.8134 27.1144 48.9924 27.3746 48.9924C27.6187 48.9924 28.0905 48.6833 28.7412 48.0976C30.482 46.4057 32.5318 44.5349 34.8419 42.5175C37.2009 40.4839 38.5674 39.5078 39.023 39.5078C39.1369 39.5078 39.2671 39.5404 39.2671 39.7681C39.2671 39.9308 38.6163 41.0697 37.266 43.2659C35.9482 45.4133 35.2812 46.9589 35.2812 47.8536C35.2812 48.6833 35.7856 49.09 36.8105 49.09C37.8191 49.09 39.6738 48.0651 42.3255 46.064C44.0988 44.8439 45.9534 43.4611 47.8568 41.9644L47.808 42.127C46.0673 44.9253 45.1887 46.8613 45.1887 47.8536C45.1887 48.6833 45.6768 49.09 46.6855 49.09C47.2712 49.09 48.7191 48.3254 50.9966 46.7961C51.7181 46.3098 52.4395 45.8113 53.1952 45.2826" fill="white"/>
<defs>
<linearGradient id="paint0_linear" x1="8.67432" y1="59.8016" x2="77.2551" y2="20.2065" gradientUnits="userSpaceOnUse">
<stop stop-color="white" stop-opacity="0"/>
<stop offset="0.0038" stop-color="white" stop-opacity="0.02267"/>
<stop offset="0.00878" stop-color="white" stop-opacity="0.08722"/>
<stop offset="0.01442" stop-color="white" stop-opacity="0.19363"/>
<stop offset="0.02054" stop-color="white" stop-opacity="0.34208"/>
<stop offset="0.02705" stop-color="white" stop-opacity="0.53275"/>
<stop offset="0.03377" stop-color="white" stop-opacity="0.76156"/>
<stop offset="0.04" stop-color="white"/>
<stop offset="1" stop-color="white"/>
</linearGradient>
</defs>
</svg>
