<svg width="390" height="238" viewBox="0 0 390 238" fill="none" xmlns="http://www.w3.org/2000/svg">
<path d="M41.9532 229.084C41.4011 228.289 40.6545 227.648 39.7845 227.223C39.4805 227.056 39.1605 226.921 38.8293 226.818C39.1024 226.699 39.3628 226.553 39.6062 226.381C40.2933 225.901 40.8407 225.248 41.1925 224.487C41.557 223.685 41.7394 222.811 41.7267 221.93C41.7267 220.069 41.1601 218.693 40.0433 217.851C38.9265 217.025 37.3565 216.605 35.3494 216.605H31.6103C31.8529 217.139 32.1284 217.673 32.4034 218.207H35.3976C36.6004 218.142 37.7923 218.465 38.7969 219.13C39.6224 219.745 40.0433 220.781 40.0433 222.205C40.0706 223.245 39.739 224.262 39.1044 225.086C38.5976 225.667 37.8948 226.042 37.1297 226.138C36.98 226.169 36.8287 226.191 36.6764 226.203C36.4986 226.22 36.3042 226.235 36.1101 226.235H35.6893C35.9967 226.786 36.3042 227.32 36.644 227.854C36.7855 227.868 36.9261 227.889 37.0653 227.919C37.2851 227.938 37.5021 227.982 37.7126 228.048C37.9159 228.087 38.116 228.141 38.3112 228.21C38.3436 228.226 38.3761 228.226 38.4085 228.243C39.1492 228.505 39.8117 228.951 40.3345 229.537C40.8598 230.203 41.1246 231.038 41.0794 231.885C41.0861 232.141 41.0589 232.396 40.9984 232.645C40.9803 232.85 40.9367 233.051 40.8688 233.244C41.1924 233.795 41.5323 234.345 41.8721 234.879C41.974 234.737 42.0609 234.585 42.1314 234.426C42.1643 234.386 42.1915 234.343 42.2124 234.296C42.5965 233.534 42.7855 232.689 42.7625 231.836C42.7825 230.857 42.4999 229.896 41.9532 229.084ZM41.9532 229.084C41.4011 228.289 40.6545 227.648 39.7845 227.223C39.4805 227.056 39.1605 226.921 38.8293 226.818C39.1024 226.699 39.3628 226.553 39.6062 226.381C40.2933 225.901 40.8407 225.248 41.1925 224.487C41.557 223.685 41.7394 222.811 41.7267 221.93C41.7267 220.069 41.1601 218.693 40.0433 217.851C38.9265 217.025 37.3565 216.605 35.3494 216.605H30.6714V237.42H36.1588C36.9896 237.421 37.8169 237.313 38.6191 237.097C39.3709 236.872 40.0814 236.528 40.723 236.077C40.723 236.074 40.7234 236.072 40.7242 236.07C40.725 236.068 40.7261 236.067 40.7276 236.065C40.7292 236.064 40.731 236.062 40.733 236.062C40.7349 236.061 40.7371 236.06 40.7392 236.06C40.9174 235.915 41.0953 235.769 41.2573 235.607C41.3099 235.557 41.3586 235.503 41.4031 235.446C41.4652 235.394 41.5196 235.334 41.5647 235.267C41.6781 235.138 41.7754 235.008 41.8722 234.879C41.974 234.737 42.0609 234.585 42.1314 234.426C42.1643 234.386 42.1915 234.343 42.2124 234.296C42.5965 233.534 42.7855 232.689 42.7625 231.836C42.7825 230.857 42.4999 229.896 41.9532 229.084ZM32.3224 218.207H35.3976C36.6004 218.142 37.7923 218.465 38.7969 219.13C39.6224 219.745 40.0433 220.781 40.0433 222.205C40.0706 223.245 39.739 224.262 39.1043 225.086C38.5976 225.667 37.8947 226.042 37.1297 226.138C36.98 226.169 36.8287 226.191 36.6764 226.203C36.4986 226.219 36.3041 226.235 36.1101 226.235H32.3224L32.3224 218.207ZM40.8688 233.244C40.8023 233.436 40.7155 233.621 40.61 233.795C40.571 233.876 40.522 233.952 40.4642 234.021C40.448 234.053 40.4318 234.07 40.4156 234.102C40.3981 234.132 40.3762 234.159 40.3507 234.183C40.1978 234.384 40.0182 234.564 39.8169 234.717C39.4589 235.031 39.0478 235.277 38.6029 235.446C37.8015 235.749 36.951 235.903 36.0939 235.899H32.3224V227.822H36.0129C36.1863 227.816 36.3598 227.826 36.531 227.854C36.5683 227.846 36.6068 227.846 36.644 227.854C36.7855 227.868 36.9262 227.889 37.0653 227.919C37.2851 227.938 37.5021 227.982 37.7126 228.048C37.9159 228.087 38.1161 228.141 38.3113 228.21C38.3437 228.226 38.3761 228.226 38.4085 228.243C39.1493 228.505 39.8118 228.951 40.3345 229.537C40.8598 230.203 41.1246 231.038 41.0794 231.885C41.0861 232.141 41.0589 232.396 40.9984 232.645C40.9803 232.85 40.9367 233.051 40.8688 233.244Z" fill="white"/>
<path d="M58.1402 227.74H68.291V226.145H58.1402V218.201H69.421V216.605H56.4863V237.428H69.8276V235.832H58.1402V227.74Z" fill="white"/>
<path d="M90.9658 215.781L90.9334 215.7H90.6584L81.9338 237.26L81.8694 237.422H83.5366L86.272 230.608H95.1906L97.845 237.357L97.8774 237.422H99.7228L90.9658 215.781ZM86.8869 229.054L90.7718 219.358L94.5753 229.054H86.8869Z" fill="white"/>
<path d="M125.281 230.354C125.307 231.414 125.058 232.462 124.557 233.396C124.093 234.227 123.405 234.911 122.571 235.371C121.682 235.842 120.688 236.082 119.682 236.066C118.69 236.081 117.711 235.841 116.838 235.371C116.01 234.909 115.327 234.226 114.865 233.397C114.364 232.463 114.115 231.414 114.141 230.354V216.605H112.487V230.441C112.452 231.797 112.779 233.138 113.433 234.325C114.037 235.384 114.935 236.245 116.018 236.804C117.157 237.369 118.41 237.663 119.681 237.663C120.952 237.663 122.206 237.369 123.345 236.804C124.429 236.242 125.331 235.383 125.945 234.327C126.608 233.141 126.939 231.799 126.904 230.441V216.605H125.281V230.354Z" fill="white"/>
<path d="M140.155 218.201H146.158V237.428H147.812V218.201H153.872V216.605H140.155V218.201Z" fill="white"/>
<path d="M173.705 228.136L167.111 216.662L167.077 216.605H165.071L172.841 230.009V237.428H174.495V230.009L182.268 216.605H180.284L173.705 228.136Z" fill="white"/>
<path d="M222.687 227.563L222.685 227.562C222.122 227.106 221.504 226.721 220.846 226.417C220.199 226.115 219.518 225.83 218.825 225.574C217.98 225.248 217.172 224.903 216.427 224.545C215.75 224.243 215.141 223.809 214.634 223.268C214.182 222.761 213.944 222.099 213.969 221.42C213.963 220.947 214.066 220.478 214.269 220.051C214.473 219.623 214.773 219.249 215.144 218.955C216.052 218.26 217.177 217.909 218.32 217.967C219.191 217.97 220.059 218.095 220.895 218.339C221.646 218.547 222.378 218.816 223.083 219.145L223.187 219.196L223.839 217.887L223.738 217.834C222.906 217.411 222.027 217.087 221.118 216.871C220.146 216.622 219.147 216.494 218.143 216.49C217.109 216.489 216.088 216.715 215.151 217.152C214.31 217.544 213.589 218.153 213.061 218.915C212.539 219.697 212.269 220.621 212.288 221.561C212.266 222.289 212.436 223.009 212.78 223.65C213.11 224.23 213.561 224.731 214.103 225.121C214.668 225.534 215.279 225.879 215.924 226.15C216.571 226.428 217.236 226.699 217.904 226.955C218.723 227.249 219.522 227.595 220.297 227.99C221.001 228.343 221.621 228.843 222.115 229.456C222.608 230.125 222.855 230.943 222.815 231.773C222.85 232.655 222.588 233.524 222.071 234.24C221.576 234.883 220.922 235.386 220.174 235.699C218.742 236.276 217.155 236.337 215.683 235.87C214.432 235.497 213.248 234.924 212.179 234.173L212.075 234.098L211.29 235.468L211.384 235.527C211.745 235.754 212.249 236.041 212.883 236.383C213.593 236.755 214.34 237.054 215.11 237.276C216.031 237.542 216.985 237.673 217.943 237.664C219.123 237.686 220.292 237.432 221.356 236.924C222.308 236.461 223.109 235.737 223.665 234.836C224.228 233.905 224.516 232.834 224.497 231.746C224.522 230.89 224.355 230.039 224.008 229.256C223.693 228.604 223.243 228.027 222.687 227.563Z" fill="white"/>
<path d="M236.329 218.201H242.332V237.428H243.986V218.201H250.046V216.605H236.329V218.201Z" fill="white"/>
<path d="M276.092 230.354C276.118 231.414 275.869 232.463 275.368 233.397C274.904 234.228 274.217 234.911 273.384 235.371C272.495 235.842 271.501 236.082 270.495 236.066C269.503 236.081 268.524 235.841 267.65 235.371C266.822 234.909 266.139 234.226 265.678 233.397C265.177 232.463 264.927 231.414 264.954 230.354V216.605H263.3V230.441C263.265 231.797 263.591 233.138 264.246 234.325C264.85 235.384 265.747 236.245 266.831 236.804C267.969 237.369 269.223 237.663 270.494 237.663C271.765 237.663 273.019 237.369 274.157 236.804C275.242 236.242 276.144 235.383 276.757 234.327C277.42 233.141 277.751 231.799 277.716 230.441V216.605H276.092V230.354Z" fill="white"/>
<path d="M308.332 223.469C308.076 222.707 307.728 221.978 307.296 221.3C307.115 220.992 306.909 220.7 306.681 220.426C306.598 220.301 306.506 220.182 306.406 220.07C305.46 218.985 304.281 218.127 302.958 217.561C301.327 216.889 299.574 216.563 297.811 216.606H292.615V237.422H298.798C300.111 237.434 301.414 237.192 302.634 236.71C303.844 236.24 304.95 235.536 305.888 234.638C306.848 233.725 307.609 232.622 308.122 231.4C308.688 230.048 308.969 228.593 308.947 227.127C308.936 225.883 308.728 224.648 308.332 223.469ZM306.584 230.72C306.149 231.758 305.505 232.694 304.691 233.471C303.878 234.248 302.913 234.849 301.857 235.236C300.885 235.59 299.864 235.786 298.83 235.819C298.696 235.833 298.561 235.838 298.426 235.835H294.282V218.225H298.021C299.393 218.199 300.756 218.441 302.035 218.937C303.117 219.384 304.097 220.044 304.917 220.879C305.265 221.239 305.574 221.635 305.839 222.061C306.048 222.364 306.232 222.684 306.389 223.016C306.503 223.241 306.601 223.473 306.681 223.712C307.073 224.779 307.27 225.909 307.264 227.046C307.286 228.304 307.055 229.554 306.584 230.72Z" fill="white"/>
<path d="M324.321 216.605H322.669V237.428H324.321V216.605Z" fill="white"/>
<path d="M358.493 222.92C358.221 222.275 357.879 221.661 357.474 221.09C357.287 220.802 357.082 220.526 356.859 220.265C356.648 220.006 356.422 219.763 356.195 219.52C355.216 218.544 354.063 217.759 352.796 217.206C351.486 216.648 350.076 216.362 348.652 216.364C347.239 216.358 345.839 216.645 344.541 217.206C341.982 218.308 339.947 220.354 338.86 222.92C338.306 224.225 338.025 225.629 338.034 227.047C338.02 228.497 338.301 229.934 338.86 231.272C339.386 232.536 340.162 233.682 341.142 234.639C342.121 235.594 343.275 236.352 344.541 236.872C345.243 237.148 345.969 237.36 346.71 237.504C347.05 237.552 347.389 237.6 347.73 237.617C348.036 237.649 348.344 237.665 348.652 237.665C350.075 237.673 351.485 237.392 352.796 236.84C354.063 236.3 355.216 235.526 356.195 234.558C357.166 233.578 357.946 232.425 358.493 231.158C359.054 229.861 359.341 228.461 359.335 227.047C359.339 225.628 359.053 224.224 358.493 222.92ZM356.94 230.56C356.484 231.632 355.831 232.61 355.013 233.441C354.186 234.254 353.214 234.907 352.149 235.367C351.079 235.822 349.928 236.059 348.765 236.063H348.62C348.312 236.063 348.004 236.046 347.697 236.014C346.827 235.929 345.976 235.711 345.172 235.367C344.114 234.903 343.148 234.25 342.323 233.441C341.509 232.611 340.861 231.633 340.413 230.56C339.95 229.458 339.714 228.274 339.718 227.079C339.716 224.695 340.638 222.404 342.291 220.686C343.104 219.846 344.071 219.17 345.14 218.695C346.245 218.203 347.443 217.954 348.652 217.967C349.854 217.964 351.044 218.206 352.149 218.679C353.219 219.152 354.191 219.822 355.013 220.653C355.387 221.03 355.723 221.442 356.017 221.884C356.221 222.176 356.41 222.479 356.584 222.79C356.713 223.033 356.826 223.276 356.94 223.535C357.407 224.646 357.644 225.841 357.635 227.047C357.651 228.253 357.414 229.45 356.94 230.56Z" fill="white"/>
<path d="M245.743 119.24C244.006 119.24 242.73 118.723 241.952 117.702C241.162 116.682 240.743 115.424 240.764 114.135C240.764 112.792 242.059 110.574 244.618 107.536C247.164 104.504 249.216 102.966 250.716 102.966C251.376 102.935 252.035 103.046 252.648 103.29C253.262 103.535 253.816 103.908 254.274 104.384C255.137 105.336 255.575 106.704 255.575 108.437C255.575 110.183 254.362 112.439 251.97 115.15C249.572 117.866 247.479 119.24 245.743 119.24Z" fill="white"/>
<path d="M143.815 148.308C144.574 147.29 145.214 146.188 145.721 145.023C146.013 144.249 146.3 143.472 146.581 142.693C136.582 151.374 125.229 158.359 112.971 163.369C92.1389 171.912 72.5678 176.019 54.8057 175.574L51.6486 175.496C35.4414 174.894 23.699 169.771 16.751 160.278C12.7796 154.901 10.8602 148.563 11.0384 141.447C11.2148 134.41 12.7669 126.707 15.6531 118.56C22.6577 98.1027 34.7646 78.4244 51.6314 60.0656C68.491 41.7064 85.033 27.9514 100.796 19.1944C116.627 10.3952 129.64 6.05873 139.466 6.30482C151.221 6.59932 157.039 12.42 156.759 23.6041C156.617 29.2683 154.798 34.7602 151.391 39.8874C144.232 52.8706 133.664 63.6519 120.825 71.0674C107.794 78.7 93.1388 83.134 78.0619 84.0058C73.924 84.2492 71.7961 85.8081 71.5549 88.7951C71.5039 89.0586 71.5099 89.3299 71.5726 89.5909C71.6352 89.8518 71.7531 90.0963 71.9182 90.3079C72.3995 90.8548 73.4183 91.1624 74.8704 91.1986C75.3115 91.2099 75.7887 91.1927 76.3031 91.1552C86.0979 90.4608 97.8823 86.9825 111.331 80.813C125.042 74.464 137.608 65.8897 148.519 55.4378C159.635 44.8581 165.4 34.325 165.656 24.1162C165.833 18.9595 164.099 13.919 160.787 9.96228C155.592 3.94025 146.543 0.720686 133.892 0.403556C123.568 0.144796 112.551 2.16013 101.153 6.38577C71.5857 17.7467 45.7546 39.1414 24.3817 69.9808C8.71634 92.6131 0.519288 114.204 0.0194147 134.159C-0.27508 145.906 2.78207 155.612 9.09905 163.014C18.8934 174.465 33.9376 180.524 53.8128 181.022C72.8677 181.5 92.9808 177.124 113.592 168.011C124.334 163.195 134.373 156.942 143.433 149.424C143.502 149.034 143.631 148.658 143.815 148.308Z" fill="white"/>
<path d="M242.177 161.504C245.698 159.04 249.38 156.435 253.383 153.602C251.466 157.219 250.096 161.101 249.318 165.12C248.588 167.452 248.614 169.955 249.393 172.272C250.28 174.871 252.105 177.046 254.512 178.37C258.803 180.628 262.718 180.854 266.106 180.854H267.235C275.139 180.478 281.99 178.219 289.443 175.509C296.746 172.799 303.822 169.712 310.673 166.626C316.846 163.916 323.169 161.13 329.493 158.721C339.731 154.806 351.851 150.817 364.348 150.817C366.488 150.792 368.626 150.918 370.747 151.193C378.878 152.096 384.976 156.011 387.084 161.958C387.942 164.421 388.2 167.054 387.836 169.637C387.159 174.304 385.334 178.814 381.174 183.307C380.673 183.784 380.295 184.375 380.07 185.03C380.005 185.271 380.014 185.526 380.097 185.762C380.179 185.998 380.331 186.203 380.533 186.351C380.868 186.593 381.273 186.721 381.686 186.714C381.937 186.711 382.184 186.657 382.413 186.555C382.642 186.454 382.848 186.307 383.018 186.124C391.832 175.829 390.396 165.798 388.815 161.657C387.535 158.119 385.051 154.505 381.814 152.247C378.275 149.763 374.135 148.708 371.274 148.107C367.939 147.56 364.566 147.283 361.187 147.278C349.518 147.278 338.225 150.29 327.686 153.602C320.083 156.011 312.479 158.947 305.177 161.732C299.079 164.066 293.056 166.325 286.959 168.357C280.409 170.465 273.559 172.422 266.934 172.422C265.446 172.409 263.961 172.283 262.492 172.046C260.008 170.917 258.728 168.959 258.728 166.174C258.728 160.151 263.094 152.548 271.601 143.364C280.184 134.33 287.335 129.587 293.056 129.436C294.864 129.436 295.842 130.039 295.842 131.243C295.842 132.372 294.412 134.179 291.626 136.664C289.895 138.395 289.518 139.298 289.518 139.75C289.518 141.105 290.798 142.009 293.508 142.535C295.917 142.535 298.552 140.653 301.563 136.889C304.499 133.125 306.005 130.49 306.005 129.06C306.04 128.449 305.943 127.837 305.723 127.266C305.502 126.695 305.162 126.177 304.725 125.748C303.822 124.92 301.639 124.393 298.101 124.092C286.281 124.092 275.065 129.135 264.826 139.073C263.095 140.804 261.513 142.46 260.083 144.192C253.917 148.999 247.907 153.493 241.912 157.734" fill="white"/>
<path d="M241.913 157.734C238.614 160.068 235.311 162.33 232.005 164.518C225.079 169.11 220.938 171.368 219.207 171.368C217.4 171.368 216.572 170.164 216.572 167.83C216.572 163.765 220.336 156.99 227.713 147.655C235.091 138.32 238.855 132.599 238.855 130.491C238.855 128.458 237.5 127.479 234.865 127.479C232.456 127.479 229.144 130.265 224.853 135.76L219.658 140.051C209.42 148.257 198.203 156.538 186.158 164.518C179.307 169.11 175.092 171.368 173.36 171.368C171.629 171.368 170.725 169.938 170.725 167.228C170.725 164.593 173.887 158.646 180.211 149.687C186.459 140.804 189.621 135.309 189.621 133.276C189.621 131.319 189.169 129.888 188.191 128.985C187.291 128.15 186.105 127.692 184.878 127.705C181.491 127.705 175.318 131.168 166.359 138.019C157.476 144.87 150.324 150.892 145.205 156.011C144.857 156.263 144.426 156.371 144 156.312C143.549 156.312 143.097 156.162 143.097 155.258C143.173 154.293 143.541 153.375 144.151 152.623C144.904 151.569 151.528 141.707 164.025 122.887C176.522 104.293 183.598 93.5275 185.18 90.8923C186.685 88.333 192.482 79.9015 202.494 65.8239C212.507 51.6709 218.002 43.9166 218.83 42.637C219.632 41.6229 220.104 40.3884 220.185 39.0985C220.185 37.2165 218.755 36.3131 215.819 36.3131C212.883 36.3131 210.474 37.6681 208.743 40.3786L124.126 169.411C122.018 172.122 120.964 174.38 120.964 176.111C120.964 177.843 121.491 178.671 122.695 178.671C123.825 178.671 126.008 177.241 129.019 174.53C137.074 166.701 146.56 158.044 157.25 148.709C168.166 139.298 174.489 134.782 176.597 134.782C177.124 134.782 177.727 134.932 177.727 135.986C177.727 136.739 174.715 142.009 168.467 152.172C162.369 162.109 159.283 169.261 159.283 173.401C159.283 177.241 161.616 179.123 166.359 179.123C171.027 179.123 179.609 174.38 191.879 165.12C200.085 159.474 208.667 153.075 217.475 146.149L217.25 146.902C209.194 159.851 205.129 168.809 205.129 173.401C205.129 177.241 207.387 179.123 212.055 179.123C214.765 179.123 221.465 175.584 232.005 168.508C235.343 166.257 238.682 163.95 242.178 161.504" fill="white"/>
</svg>
